<?xml version="1.0" standalone="no"?>
<!DOCTYPE svg PUBLIC "-//W3C//DTD SVG 20010904//EN"
 "http://www.w3.org/TR/2001/REC-SVG-20010904/DTD/svg10.dtd">
<svg version="1.0" xmlns="http://www.w3.org/2000/svg"
 width="360.000000pt" height="360.000000pt" viewBox="0 0 360.000000 360.000000"
 preserveAspectRatio="xMidYMid meet">

<g transform="translate(0.000000,360.000000) scale(0.100000,-0.100000)"
fill="#966A2D" stroke="none">
<path d="M0 1800 l0 -1800 1800 0 1800 0 0 1800 0 1800 -1800 0 -1800 0 0
-1800z m1445 953 c13 -12 15 -25 9 -52 -11 -55 -9 -70 49 -311 30 -124 63
-259 73 -300 9 -41 18 -76 19 -77 1 -2 161 20 230 31 11 2 55 9 98 16 87 14
91 19 101 95 4 28 9 57 11 65 2 8 16 80 30 160 14 80 28 156 31 170 3 14 6 53
6 87 0 73 17 96 69 91 24 -2 37 -10 46 -28 12 -25 26 -38 143 -140 35 -30 89
-78 119 -106 31 -28 74 -66 96 -85 22 -19 42 -36 45 -39 39 -41 165 -140 178
-140 26 0 42 -20 42 -53 0 -56 -30 -84 -74 -68 -16 7 -96 -1 -252 -24 -357
-53 -406 -62 -414 -75 -4 -7 -13 -47 -19 -89 -11 -68 -54 -310 -96 -536 -8
-44 -24 -136 -35 -205 -12 -69 -25 -147 -30 -175 -16 -83 -38 -208 -44 -246
-4 -21 -14 -43 -22 -50 -37 -30 -52 7 -119 301 -13 58 -51 220 -85 360 -67
284 -119 503 -127 538 -5 22 -9 23 -57 17 -28 -4 -60 -9 -71 -11 -11 -3 -58
-10 -105 -16 -47 -6 -90 -16 -96 -22 -10 -10 -57 -155 -142 -431 -90 -295
-147 -473 -159 -497 -21 -44 -93 -29 -93 19 0 10 25 98 56 194 30 95 61 194
69 219 7 25 25 83 40 130 70 226 104 344 100 348 -2 2 -48 -3 -102 -11 -78
-11 -102 -12 -118 -2 -26 16 -31 58 -10 75 10 8 74 23 143 35 l127 21 28 84
c16 47 35 105 42 130 7 25 45 146 85 270 58 185 70 232 65 267 -9 62 6 83 60
83 27 0 50 -6 60 -17z"/>
<path d="M2200 2559 c0 -5 -47 -272 -61 -349 -5 -30 -13 -70 -16 -87 -3 -18
-2 -33 3 -33 22 1 505 78 509 82 2 2 -44 46 -102 98 -59 52 -132 118 -163 145
-31 28 -72 64 -91 80 -19 17 -45 39 -57 49 -12 11 -22 17 -22 15z"/>
<path d="M1316 2253 c-32 -104 -64 -208 -72 -233 -15 -47 -16 -66 -5 -63 3 1
44 6 91 13 121 16 144 20 152 28 3 4 -4 52 -17 107 -66 282 -79 335 -85 335
-4 0 -32 -84 -64 -187z"/>
<path d="M1781 1934 c-85 -14 -157 -26 -159 -29 -2 -2 8 -50 21 -107 31 -124
84 -344 127 -528 38 -161 58 -230 60 -210 1 8 3 22 5 30 2 8 10 58 19 110 25
142 125 701 132 733 7 34 6 34 -205 1z"/>
</g>
</svg>
